<?xml version="1.0" encoding="UTF-8"?>
<!DOCTYPE svg PUBLIC "-//W3C//DTD SVG 1.1//EN" "http://www.w3.org/Graphics/SVG/1.1/DTD/svg11.dtd">
<svg xmlns="http://www.w3.org/2000/svg" version="1.1" width="348px" height="348px" style="shape-rendering:geometricPrecision; text-rendering:geometricPrecision; image-rendering:optimizeQuality; fill-rule:evenodd; clip-rule:evenodd" xmlns:xlink="http://www.w3.org/1999/xlink">
<g><path style="opacity:1" fill="#fefefe" d="M -0.5,-0.5 C 115.5,-0.5 231.5,-0.5 347.5,-0.5C 347.5,115.5 347.5,231.5 347.5,347.5C 231.5,347.5 115.5,347.5 -0.5,347.5C -0.5,261.5 -0.5,175.5 -0.5,89.5C 0.865049,91.8598 2.86505,93.5265 5.5,94.5C 9.97005,95.4861 14.6367,95.8195 19.5,95.5C 19.1689,121.339 19.5022,147.005 20.5,172.5C 20.5,173.167 20.5,173.833 20.5,174.5C 21.0439,178.466 22.3772,182.133 24.5,185.5C 26.0252,188.563 28.0252,191.23 30.5,193.5C 35.7554,198.963 42.0888,202.63 49.5,204.5C 51.2922,205.309 53.2922,205.809 55.5,206C 102.165,206.5 148.832,206.667 195.5,206.5C 196.833,206.833 198.167,207.167 199.5,207.5C 201.326,209.147 202.66,211.147 203.5,213.5C 203.5,220.833 203.5,228.167 203.5,235.5C 203.5,242.833 203.5,250.167 203.5,257.5C 203.5,260.833 203.5,264.167 203.5,267.5C 203.5,271.167 203.5,274.833 203.5,278.5C 201.954,281.2 199.621,283.033 196.5,284C 181.837,284.5 167.17,284.667 152.5,284.5C 146.833,284.5 141.167,284.5 135.5,284.5C 129.167,284.5 122.833,284.5 116.5,284.5C 111.167,284.5 105.833,284.5 100.5,284.5C 96.8333,284.5 93.1667,284.5 89.5,284.5C 85.4384,284.276 82.605,282.276 81,278.5C 80.5002,268.506 80.3335,258.506 80.5,248.5C 60.3402,247.503 40.0069,247.17 19.5,247.5C 19.1694,268.673 19.5027,289.673 20.5,310.5C 20.7261,314.407 21.7261,318.074 23.5,321.5C 25.7328,326.401 29.0661,330.401 33.5,333.5C 36.6505,336.579 40.3171,338.913 44.5,340.5C 46.9052,341.768 49.5718,342.435 52.5,342.5C 61.6517,343.494 70.985,343.827 80.5,343.5C 85.8333,343.5 91.1667,343.5 96.5,343.5C 103.167,343.5 109.833,343.5 116.5,343.5C 127.833,343.5 139.167,343.5 150.5,343.5C 177.339,343.831 204.005,343.498 230.5,342.5C 232.292,342.634 233.958,342.301 235.5,341.5C 240.753,340.207 245.419,337.874 249.5,334.5C 252.5,332.167 255.167,329.5 257.5,326.5C 259.272,324.059 260.606,321.392 261.5,318.5C 263.062,314.343 263.729,310.01 263.5,305.5C 263.5,302.833 263.5,300.167 263.5,297.5C 263.5,292.833 263.5,288.167 263.5,283.5C 263.5,279.833 263.5,276.167 263.5,272.5C 263.5,265.167 263.5,257.833 263.5,250.5C 263.667,225.831 263.5,201.164 263,176.5C 262.613,173.401 261.446,170.734 259.5,168.5C 256.581,161.247 251.581,155.914 244.5,152.5C 240.307,149.747 235.64,148.08 230.5,147.5C 211.88,146.526 193.213,146.192 174.5,146.5C 156.5,146.5 138.5,146.5 120.5,146.5C 109.167,146.5 97.8333,146.5 86.5,146.5C 84.0502,145.289 82.0502,143.622 80.5,141.5C 80.5,119.5 80.5,97.5 80.5,75.5C 81.4151,73.2459 82.7484,71.2459 84.5,69.5C 86.1172,68.962 87.7839,68.6287 89.5,68.5C 105.167,68.5 120.833,68.5 136.5,68.5C 144.167,68.5 151.833,68.5 159.5,68.5C 171.167,68.5 182.833,68.5 194.5,68.5C 198.57,68.7352 201.403,70.7352 203,74.5C 203.5,84.4944 203.666,94.4944 203.5,104.5C 205.167,104.5 206.833,104.5 208.5,104.5C 208.5,108.833 208.5,113.167 208.5,117.5C 211.5,117.5 214.5,117.5 217.5,117.5C 220.5,117.5 223.5,117.5 226.5,117.5C 226.5,121.5 226.5,125.5 226.5,129.5C 227.833,129.5 229.167,129.5 230.5,129.5C 231.216,135.247 232.383,140.914 234,146.5C 235.386,140.84 236.553,135.173 237.5,129.5C 238.833,129.5 240.167,129.5 241.5,129.5C 241.5,125.5 241.5,121.5 241.5,117.5C 247.5,117.5 253.5,117.5 259.5,117.5C 259.5,113.167 259.5,108.833 259.5,104.5C 260.833,104.5 262.167,104.5 263.5,104.5C 264.497,87.3414 264.83,70.008 264.5,52.5C 267.059,52.8016 269.393,52.4682 271.5,51.5C 274.975,50.1982 277.142,47.8649 278,44.5C 273.263,43.5308 268.43,43.1975 263.5,43.5C 261.943,29.2744 254.609,19.2744 241.5,13.5C 239.11,11.9802 236.443,10.9802 233.5,10.5C 233.666,16.8421 233.5,23.1754 233,29.5C 231.296,31.3734 229.463,33.0401 227.5,34.5C 226.833,58.0035 226.167,81.6701 225.5,105.5C 224.5,73.1735 224.167,40.8402 224.5,8.5C 222.901,8.23219 221.568,8.56552 220.5,9.5C 220.5,41.5 220.5,73.5 220.5,105.5C 218.5,105.5 216.5,105.5 214.5,105.5C 214.832,73.329 214.498,41.329 213.5,9.5C 204.5,9.5 195.5,9.5 186.5,9.5C 180.5,9.5 174.5,9.5 168.5,9.5C 162.167,9.5 155.833,9.5 149.5,9.5C 142.167,9.5 134.833,9.5 127.5,9.5C 119.833,9.5 112.167,9.5 104.5,9.5C 98.1667,9.5 91.8333,9.5 85.5,9.5C 78.1667,9.5 70.8333,9.5 63.5,9.5C 62.5233,6.7131 62.19,3.7131 62.5,0.5C 59.5,0.5 56.5,0.5 53.5,0.5C 53.8174,3.57186 53.4841,6.57186 52.5,9.5C 50.6639,10.0276 48.9972,10.6942 47.5,11.5C 41.8906,12.6346 37.2239,15.3012 33.5,19.5C 30.2364,20.9274 27.7364,23.2608 26,26.5C 23.3907,30.329 21.5573,34.4956 20.5,39C 15.1667,39.3333 9.83333,39.6667 4.5,40C 2.63834,41.3657 0.971672,42.8657 -0.5,44.5C -0.5,29.5 -0.5,14.5 -0.5,-0.5 Z"/></g>
<g><path style="opacity:1" fill="#52ab9a" d="M 63.5,9.5 C 64.6085,10.29 65.9419,10.79 67.5,11C 65.968,11.6995 64.968,12.8662 64.5,14.5C 70.1091,32.6615 75.1091,50.9949 79.5,69.5C 74.1705,71.2796 68.8372,73.2796 63.5,75.5C 57.277,55.7845 51.277,35.9511 45.5,16C 46.0735,14.3933 46.7402,12.8933 47.5,11.5C 48.9972,10.6942 50.6639,10.0276 52.5,9.5C 53.4841,6.57186 53.8174,3.57186 53.5,0.5C 56.5,0.5 59.5,0.5 62.5,0.5C 62.19,3.7131 62.5233,6.7131 63.5,9.5 Z"/></g>
<g><path style="opacity:1" fill="#4da59a" d="M 63.5,9.5 C 70.8333,9.5 78.1667,9.5 85.5,9.5C 85.6107,10.1174 85.944,10.6174 86.5,11C 85.4844,11.5194 84.8178,12.3527 84.5,13.5C 89.3813,31.2648 94.3813,48.9315 99.5,66.5C 100.552,66.3505 101.552,66.5172 102.5,67C 97.9805,67.1753 93.6472,67.6753 89.5,68.5C 87.7839,68.6287 86.1172,68.962 84.5,69.5C 82.8333,69.5 81.1667,69.5 79.5,69.5C 75.1091,50.9949 70.1091,32.6615 64.5,14.5C 64.968,12.8662 65.968,11.6995 67.5,11C 65.9419,10.79 64.6085,10.29 63.5,9.5 Z"/></g>
<g><path style="opacity:1" fill="#499f9a" d="M 85.5,9.5 C 91.8333,9.5 98.1667,9.5 104.5,9.5C 104.918,10.2216 105.584,10.7216 106.5,11C 105.376,11.2492 104.376,11.7492 103.5,12.5C 109.125,30.3354 114.125,48.3354 118.5,66.5C 124.669,66.9185 130.669,67.5851 136.5,68.5C 120.833,68.5 105.167,68.5 89.5,68.5C 93.6472,67.6753 97.9805,67.1753 102.5,67C 101.552,66.5172 100.552,66.3505 99.5,66.5C 94.3813,48.9315 89.3813,31.2648 84.5,13.5C 84.8178,12.3527 85.4844,11.5194 86.5,11C 85.944,10.6174 85.6107,10.1174 85.5,9.5 Z"/></g>
<g><path style="opacity:1" fill="#43989a" d="M 104.5,9.5 C 112.167,9.5 119.833,9.5 127.5,9.5C 130.258,10.9665 129.925,11.6332 126.5,11.5C 131.662,29.8185 136.662,48.1518 141.5,66.5C 147.464,67.3068 153.464,67.6401 159.5,67.5C 159.5,67.8333 159.5,68.1667 159.5,68.5C 151.833,68.5 144.167,68.5 136.5,68.5C 130.669,67.5851 124.669,66.9185 118.5,66.5C 114.125,48.3354 109.125,30.3354 103.5,12.5C 104.376,11.7492 105.376,11.2492 106.5,11C 105.584,10.7216 104.918,10.2216 104.5,9.5 Z"/></g>
<g><path style="opacity:1" fill="#3e919a" d="M 127.5,9.5 C 134.833,9.5 142.167,9.5 149.5,9.5C 149.611,10.1174 149.944,10.6174 150.5,11C 149.167,11.3333 147.833,11.6667 146.5,12C 152.044,29.6695 157.211,47.5028 162,65.5C 162.75,66.1258 163.584,66.6258 164.5,67C 162.866,67.4935 161.199,67.6602 159.5,67.5C 153.464,67.6401 147.464,67.3068 141.5,66.5C 136.662,48.1518 131.662,29.8185 126.5,11.5C 129.925,11.6332 130.258,10.9665 127.5,9.5 Z"/></g>
<g><path style="opacity:1" fill="#3b8c9b" d="M 149.5,9.5 C 155.833,9.5 162.167,9.5 168.5,9.5C 168.611,10.1174 168.944,10.6174 169.5,11C 165.755,10.9646 165.088,11.9646 167.5,14C 167.043,14.414 166.709,14.914 166.5,15.5C 167.615,19.6184 169.282,23.4517 171.5,27C 171.043,27.414 170.709,27.914 170.5,28.5C 171.651,30.8091 172.984,32.9758 174.5,35C 173.798,38.3178 174.464,41.4845 176.5,44.5C 175.497,47.0353 176.163,49.2019 178.5,51C 177.529,54.0689 178.529,56.4022 181.5,58C 180.692,58.3076 180.025,58.8076 179.5,59.5C 182.275,66.3819 187.275,69.3819 194.5,68.5C 182.833,68.5 171.167,68.5 159.5,68.5C 159.5,68.1667 159.5,67.8333 159.5,67.5C 161.199,67.6602 162.866,67.4935 164.5,67C 163.584,66.6258 162.75,66.1258 162,65.5C 157.211,47.5028 152.044,29.6695 146.5,12C 147.833,11.6667 149.167,11.3333 150.5,11C 149.944,10.6174 149.611,10.1174 149.5,9.5 Z"/></g>
<g><path style="opacity:1" fill="#36869b" d="M 168.5,9.5 C 174.5,9.5 180.5,9.5 186.5,9.5C 186.918,10.2216 187.584,10.7216 188.5,11C 187.572,11.3879 186.905,12.0546 186.5,13C 195.408,41.7241 203.908,70.5575 212,99.5C 212.172,93.3193 212.672,87.3193 213.5,81.5C 213.5,89.8333 213.5,98.1667 213.5,106.5C 215.167,106.5 216.833,106.5 218.5,106.5C 217.391,107.29 216.058,107.79 214.5,108C 215.227,110.124 215.894,112.291 216.5,114.5C 217.376,115.251 218.376,115.751 219.5,116C 218.584,116.278 217.918,116.778 217.5,117.5C 214.5,117.5 211.5,117.5 208.5,117.5C 208.5,113.167 208.5,108.833 208.5,104.5C 206.833,104.5 205.167,104.5 203.5,104.5C 203.666,94.4944 203.5,84.4944 203,74.5C 201.403,70.7352 198.57,68.7352 194.5,68.5C 187.275,69.3819 182.275,66.3819 179.5,59.5C 180.025,58.8076 180.692,58.3076 181.5,58C 178.529,56.4022 177.529,54.0689 178.5,51C 176.163,49.2019 175.497,47.0353 176.5,44.5C 174.464,41.4845 173.798,38.3178 174.5,35C 172.984,32.9758 171.651,30.8091 170.5,28.5C 170.709,27.914 171.043,27.414 171.5,27C 169.282,23.4517 167.615,19.6184 166.5,15.5C 166.709,14.914 167.043,14.414 167.5,14C 165.088,11.9646 165.755,10.9646 169.5,11C 168.944,10.6174 168.611,10.1174 168.5,9.5 Z"/></g>
<g><path style="opacity:1" fill="#317f9b" d="M 186.5,9.5 C 195.5,9.5 204.5,9.5 213.5,9.5C 213.5,33.5 213.5,57.5 213.5,81.5C 212.672,87.3193 212.172,93.3193 212,99.5C 203.908,70.5575 195.408,41.7241 186.5,13C 186.905,12.0546 187.572,11.3879 188.5,11C 187.584,10.7216 186.918,10.2216 186.5,9.5 Z"/></g>
<g><path style="opacity:1" fill="#55b099" d="M 47.5,11.5 C 46.7402,12.8933 46.0735,14.3933 45.5,16C 51.277,35.9511 57.277,55.7845 63.5,75.5C 58.4936,78.0013 53.8269,81.0013 49.5,84.5C 42.5725,65.4372 36.5725,45.9372 31.5,26C 32.1007,24.395 33.1007,23.0616 34.5,22C 33.7476,21.3292 33.4142,20.4959 33.5,19.5C 37.2239,15.3012 41.8906,12.6346 47.5,11.5 Z"/></g>
<g><path style="opacity:1" fill="#28739c" d="M 241.5,13.5 C 254.609,19.2744 261.943,29.2744 263.5,43.5C 268.43,43.1975 273.263,43.5308 278,44.5C 277.142,47.8649 274.975,50.1982 271.5,51.5C 268.833,51.5 266.167,51.5 263.5,51.5C 263.5,69.1667 263.5,86.8333 263.5,104.5C 262.167,104.5 260.833,104.5 259.5,104.5C 257.883,105.589 257.05,107.256 257,109.5C 249.562,84.1394 242.062,58.806 234.5,33.5C 235.296,26.8834 235.796,20.2167 236,13.5C 237.626,13.1459 239.459,13.1459 241.5,13.5 Z"/></g>
<g><path style="opacity:1" fill="#5bb799" d="M 33.5,19.5 C 33.4142,20.4959 33.7476,21.3292 34.5,22C 33.1007,23.0616 32.1007,24.395 31.5,26C 36.5725,45.9372 42.5725,65.4372 49.5,84.5C 39.0667,92.6052 31.7333,102.939 27.5,115.5C 25.2597,119.098 23.9264,123.098 23.5,127.5C 22.2154,130.589 21.5488,133.922 21.5,137.5C 21.1667,137.5 20.8333,137.5 20.5,137.5C 20.5,123.167 20.5,108.833 20.5,94.5C 15.5,94.5 10.5,94.5 5.5,94.5C 2.86505,93.5265 0.865049,91.8598 -0.5,89.5C -0.5,74.5 -0.5,59.5 -0.5,44.5C 0.971672,42.8657 2.63834,41.3657 4.5,40C 9.83333,39.6667 15.1667,39.3333 20.5,39C 21.5573,34.4956 23.3907,30.329 26,26.5C 27.7364,23.2608 30.2364,20.9274 33.5,19.5 Z"/></g>
<g><path style="opacity:1" fill="#2d7a9c" d="M 241.5,13.5 C 239.459,13.1459 237.626,13.1459 236,13.5C 235.796,20.2167 235.296,26.8834 234.5,33.5C 242.062,58.806 249.562,84.1394 257,109.5C 257.05,107.256 257.883,105.589 259.5,104.5C 259.5,108.833 259.5,113.167 259.5,117.5C 253.5,117.5 247.5,117.5 241.5,117.5C 241.918,116.778 242.584,116.278 243.5,116C 241.598,115.801 240.098,114.967 239,113.5C 235.381,99.6256 231.548,86.2922 227.5,73.5C 227.5,60.5 227.5,47.5 227.5,34.5C 229.463,33.0401 231.296,31.3734 233,29.5C 233.5,23.1754 233.666,16.8421 233.5,10.5C 236.443,10.9802 239.11,11.9802 241.5,13.5 Z"/></g>
<g><path style="opacity:1" fill="#5997ae" d="M 213.5,9.5 C 214.498,41.329 214.832,73.329 214.5,105.5C 216.5,105.5 218.5,105.5 220.5,105.5C 220.5,73.5 220.5,41.5 220.5,9.5C 220.833,9.5 221.167,9.5 221.5,9.5C 221.5,41.8333 221.5,74.1667 221.5,106.5C 220.5,106.5 219.5,106.5 218.5,106.5C 216.833,106.5 215.167,106.5 213.5,106.5C 213.5,98.1667 213.5,89.8333 213.5,81.5C 213.5,57.5 213.5,33.5 213.5,9.5 Z"/></g>
<g><path style="opacity:1" fill="#c5d9e4" d="M 271.5,51.5 C 269.393,52.4682 267.059,52.8016 264.5,52.5C 264.83,70.008 264.497,87.3414 263.5,104.5C 263.5,86.8333 263.5,69.1667 263.5,51.5C 266.167,51.5 268.833,51.5 271.5,51.5 Z"/></g>
<g><path style="opacity:1" fill="#a2c4d2" d="M 220.5,9.5 C 221.568,8.56552 222.901,8.23219 224.5,8.5C 224.167,40.8402 224.5,73.1735 225.5,105.5C 226.167,81.6701 226.833,58.0035 227.5,34.5C 227.5,47.5 227.5,60.5 227.5,73.5C 227.5,84.5 227.5,95.5 227.5,106.5C 226.167,106.5 224.833,106.5 223.5,106.5C 224.159,73.8161 223.493,41.4828 221.5,9.5C 221.167,9.5 220.833,9.5 220.5,9.5 Z"/></g>
<g><path style="opacity:1" fill="#1e669c" d="M 79.5,69.5 C 81.1667,69.5 82.8333,69.5 84.5,69.5C 82.7484,71.2459 81.4151,73.2459 80.5,75.5C 79.5233,78.2869 79.19,81.2869 79.5,84.5C 78.5176,86.4061 77.5176,88.4061 76.5,90.5C 60.8033,99.3509 44.97,108.018 29,116.5C 28.2352,116.43 27.7352,116.097 27.5,115.5C 31.7333,102.939 39.0667,92.6052 49.5,84.5C 53.8269,81.0013 58.4936,78.0013 63.5,75.5C 68.8372,73.2796 74.1705,71.2796 79.5,69.5 Z"/></g>
<g><path style="opacity:1" fill="#236d9b" d="M 79.5,84.5 C 79.5,88.8333 79.5,93.1667 79.5,97.5C 78.48,101.31 76.1467,104.143 72.5,106C 57.3389,114.08 42.3389,122.413 27.5,131C 24.8617,131.509 23.5283,130.342 23.5,127.5C 23.9264,123.098 25.2597,119.098 27.5,115.5C 27.7352,116.097 28.2352,116.43 29,116.5C 44.97,108.018 60.8033,99.3509 76.5,90.5C 77.5176,88.4061 78.5176,86.4061 79.5,84.5 Z"/></g>
<g><path style="opacity:1" fill="#a5d2ca" d="M 5.5,94.5 C 10.5,94.5 15.5,94.5 20.5,94.5C 20.5,108.833 20.5,123.167 20.5,137.5C 20.5,144.167 20.5,150.833 20.5,157.5C 20.5,162.5 20.5,167.5 20.5,172.5C 19.5022,147.005 19.1689,121.339 19.5,95.5C 14.6367,95.8195 9.97005,95.4861 5.5,94.5 Z"/></g>
<g><path style="opacity:1" fill="#28739b" d="M 79.5,97.5 C 79.5,101.833 79.5,106.167 79.5,110.5C 78.6586,113.475 76.9919,115.975 74.5,118C 56.8872,127.721 39.3872,137.554 22,147.5C 21.5017,144.183 21.335,140.85 21.5,137.5C 21.5488,133.922 22.2154,130.589 23.5,127.5C 23.5283,130.342 24.8617,131.509 27.5,131C 42.3389,122.413 57.3389,114.08 72.5,106C 76.1467,104.143 78.48,101.31 79.5,97.5 Z"/></g>
<g><path style="opacity:1" fill="#33809c" d="M 221.5,9.5 C 223.493,41.4828 224.159,73.8161 223.5,106.5C 224.833,106.5 226.167,106.5 227.5,106.5C 227.5,95.5 227.5,84.5 227.5,73.5C 231.548,86.2922 235.381,99.6256 239,113.5C 240.098,114.967 241.598,115.801 243.5,116C 242.584,116.278 241.918,116.778 241.5,117.5C 241.5,121.5 241.5,125.5 241.5,129.5C 240.167,129.5 238.833,129.5 237.5,129.5C 236.553,135.173 235.386,140.84 234,146.5C 232.383,140.914 231.216,135.247 230.5,129.5C 229.167,129.5 227.833,129.5 226.5,129.5C 226.5,125.5 226.5,121.5 226.5,117.5C 223.5,117.5 220.5,117.5 217.5,117.5C 217.918,116.778 218.584,116.278 219.5,116C 218.376,115.751 217.376,115.251 216.5,114.5C 215.894,112.291 215.227,110.124 214.5,108C 216.058,107.79 217.391,107.29 218.5,106.5C 219.5,106.5 220.5,106.5 221.5,106.5C 221.5,74.1667 221.5,41.8333 221.5,9.5 Z"/></g>
<g><path style="opacity:1" fill="#2c799b" d="M 79.5,110.5 C 79.6658,115.179 79.4992,119.845 79,124.5C 78.2607,126.221 77.4274,127.887 76.5,129.5C 58.5,139.5 40.5,149.5 22.5,159.5C 21.8182,158.757 21.1515,158.091 20.5,157.5C 20.5,150.833 20.5,144.167 20.5,137.5C 20.8333,137.5 21.1667,137.5 21.5,137.5C 21.335,140.85 21.5017,144.183 22,147.5C 39.3872,137.554 56.8872,127.721 74.5,118C 76.9919,115.975 78.6586,113.475 79.5,110.5 Z"/></g>
<g><path style="opacity:1" fill="#34809c" d="M 80.5,75.5 C 80.5,97.5 80.5,119.5 80.5,141.5C 80.5,142.5 80.5,143.5 80.5,144.5C 79.8501,144.196 79.1835,143.863 78.5,143.5C 62.8973,152.305 47.2306,161.139 31.5,170C 28.0288,172.072 24.3621,173.572 20.5,174.5C 20.5,173.833 20.5,173.167 20.5,172.5C 20.5,167.5 20.5,162.5 20.5,157.5C 21.1515,158.091 21.8182,158.757 22.5,159.5C 40.5,149.5 58.5,139.5 76.5,129.5C 77.4274,127.887 78.2607,126.221 79,124.5C 79.4992,119.845 79.6658,115.179 79.5,110.5C 79.5,106.167 79.5,101.833 79.5,97.5C 79.5,93.1667 79.5,88.8333 79.5,84.5C 79.19,81.2869 79.5233,78.2869 80.5,75.5 Z"/></g>
<g><path style="opacity:1" fill="#36869b" d="M 80.5,144.5 C 80.5751,147.206 80.9084,149.873 81.5,152.5C 80.8016,154.705 79.4682,156.539 77.5,158C 60.9403,167.4 44.2737,176.567 27.5,185.5C 26.4728,184.209 25.4728,184.209 24.5,185.5C 22.3772,182.133 21.0439,178.466 20.5,174.5C 24.3621,173.572 28.0288,172.072 31.5,170C 47.2306,161.139 62.8973,152.305 78.5,143.5C 79.1835,143.863 79.8501,144.196 80.5,144.5 Z"/></g>
<g><path style="opacity:1" fill="#165b9c" d="M 80.5,141.5 C 82.0502,143.622 84.0502,145.289 86.5,146.5C 94.0104,147.167 101.677,147.833 109.5,148.5C 110.376,149.251 111.376,149.751 112.5,150C 109.095,164.293 105.428,178.46 101.5,192.5C 98.4728,190.14 95.8062,187.473 93.5,184.5C 89.94,178.713 86.94,172.713 84.5,166.5C 83.4992,161.829 82.4992,157.162 81.5,152.5C 80.9084,149.873 80.5751,147.206 80.5,144.5C 80.5,143.5 80.5,142.5 80.5,141.5 Z"/></g>
<g><path style="opacity:1" fill="#1c629d" d="M 86.5,146.5 C 97.8333,146.5 109.167,146.5 120.5,146.5C 122.607,147.468 124.941,147.802 127.5,147.5C 123.995,164.172 120.162,180.839 116,197.5C 115.25,198.126 114.416,198.626 113.5,199C 114.381,199.708 115.047,200.542 115.5,201.5C 109.805,199.992 105.138,196.992 101.5,192.5C 105.428,178.46 109.095,164.293 112.5,150C 111.376,149.751 110.376,149.251 109.5,148.5C 101.677,147.833 94.0104,147.167 86.5,146.5 Z"/></g>
<g><path style="opacity:1" fill="#1e679b" d="M 127.5,147.5 C 131.5,147.5 135.5,147.5 139.5,147.5C 140.108,148.8 140.775,150.133 141.5,151.5C 137.808,167.126 134.308,182.793 131,198.5C 130.212,201.47 129.045,203.47 127.5,204.5C 127.167,204.5 126.833,204.5 126.5,204.5C 122.466,204.483 118.799,203.483 115.5,201.5C 115.047,200.542 114.381,199.708 113.5,199C 114.416,198.626 115.25,198.126 116,197.5C 120.162,180.839 123.995,164.172 127.5,147.5 Z"/></g>
<g><path style="opacity:1" fill="#236d9b" d="M 139.5,147.5 C 144.5,147.5 149.5,147.5 154.5,147.5C 154.082,148.222 153.416,148.722 152.5,149C 153.793,149.49 155.127,149.657 156.5,149.5C 152.335,167.153 148.168,184.82 144,202.5C 138.696,204.308 133.196,204.975 127.5,204.5C 129.045,203.47 130.212,201.47 131,198.5C 134.308,182.793 137.808,167.126 141.5,151.5C 140.775,150.133 140.108,148.8 139.5,147.5 Z"/></g>
<g><path style="opacity:1" fill="#28739c" d="M 154.5,147.5 C 159.214,147.173 163.88,147.507 168.5,148.5C 169.5,149.167 170.5,149.833 171.5,150.5C 167.39,168.173 163.39,185.84 159.5,203.5C 157.214,203.595 155.214,204.262 153.5,205.5C 144.318,205.827 135.318,205.493 126.5,204.5C 126.833,204.5 127.167,204.5 127.5,204.5C 133.196,204.975 138.696,204.308 144,202.5C 148.168,184.82 152.335,167.153 156.5,149.5C 155.127,149.657 153.793,149.49 152.5,149C 153.416,148.722 154.082,148.222 154.5,147.5 Z"/></g>
<g><path style="opacity:1" fill="#2e7a9c" d="M 120.5,146.5 C 138.5,146.5 156.5,146.5 174.5,146.5C 177.287,147.477 180.287,147.81 183.5,147.5C 183.904,148.756 184.571,149.923 185.5,151C 181.554,168.509 177.554,186.009 173.5,203.5C 170.075,203.367 169.742,204.033 172.5,205.5C 166.167,205.5 159.833,205.5 153.5,205.5C 155.214,204.262 157.214,203.595 159.5,203.5C 163.39,185.84 167.39,168.173 171.5,150.5C 170.5,149.833 169.5,149.167 168.5,148.5C 163.88,147.507 159.214,147.173 154.5,147.5C 149.5,147.5 144.5,147.5 139.5,147.5C 135.5,147.5 131.5,147.5 127.5,147.5C 124.941,147.802 122.607,147.468 120.5,146.5 Z"/></g>
<g><path style="opacity:1" fill="#307f9a" d="M 183.5,147.5 C 189.5,147.5 195.5,147.5 201.5,147.5C 201.959,149.356 202.292,151.189 202.5,153C 201.253,158.245 199.586,163.245 197.5,168C 198.285,169.543 198.285,171.21 197.5,173C 197.245,174.326 196.578,175.326 195.5,176C 196.022,176.561 196.355,177.228 196.5,178C 194.106,187.035 191.772,195.702 189.5,204C 187.942,204.21 186.609,204.71 185.5,205.5C 181.167,205.5 176.833,205.5 172.5,205.5C 169.742,204.033 170.075,203.367 173.5,203.5C 177.554,186.009 181.554,168.509 185.5,151C 184.571,149.923 183.904,148.756 183.5,147.5 Z"/></g>
<g><path style="opacity:1" fill="#36869b" d="M 201.5,147.5 C 206.511,147.334 211.511,147.501 216.5,148C 218.657,149.085 218.824,150.251 217,151.5C 214.956,164.792 211.956,177.792 208,190.5C 207.273,195.863 206.439,201.197 205.5,206.5C 203.265,206.205 201.265,206.539 199.5,207.5C 198.167,207.167 196.833,206.833 195.5,206.5C 192.375,205.521 189.042,205.187 185.5,205.5C 186.609,204.71 187.942,204.21 189.5,204C 191.772,195.702 194.106,187.035 196.5,178C 196.355,177.228 196.022,176.561 195.5,176C 196.578,175.326 197.245,174.326 197.5,173C 198.285,171.21 198.285,169.543 197.5,168C 199.586,163.245 201.253,158.245 202.5,153C 202.292,151.189 201.959,149.356 201.5,147.5 Z"/></g>
<g><path style="opacity:1" fill="#3c8d9b" d="M 174.5,146.5 C 193.213,146.192 211.88,146.526 230.5,147.5C 231.139,150.527 231.306,153.86 231,157.5C 227.017,173.043 223.351,188.71 220,204.5C 219.52,206.133 218.687,207.466 217.5,208.5C 213.454,208.048 209.454,207.381 205.5,206.5C 206.439,201.197 207.273,195.863 208,190.5C 211.956,177.792 214.956,164.792 217,151.5C 218.824,150.251 218.657,149.085 216.5,148C 211.511,147.501 206.511,147.334 201.5,147.5C 195.5,147.5 189.5,147.5 183.5,147.5C 180.287,147.81 177.287,147.477 174.5,146.5 Z"/></g>
<g><path style="opacity:1" fill="#3f929a" d="M 230.5,147.5 C 235.64,148.08 240.307,149.747 244.5,152.5C 244.59,154.696 244.923,156.863 245.5,159C 241.044,177.074 237.044,195.241 233.5,213.5C 228.151,211.828 222.818,210.161 217.5,208.5C 218.687,207.466 219.52,206.133 220,204.5C 223.351,188.71 227.017,173.043 231,157.5C 231.306,153.86 231.139,150.527 230.5,147.5 Z"/></g>
<g><path style="opacity:1" fill="#44989a" d="M 244.5,152.5 C 251.581,155.914 256.581,161.247 259.5,168.5C 259.082,169.222 258.416,169.722 257.5,170C 258.167,170.333 258.833,170.667 259.5,171C 256.323,188.152 252.323,205.319 247.5,222.5C 243.137,218.988 238.47,215.988 233.5,213.5C 237.044,195.241 241.044,177.074 245.5,159C 244.923,156.863 244.59,154.696 244.5,152.5 Z"/></g>
<g><path style="opacity:1" fill="#3a8c9b" d="M 81.5,152.5 C 82.4992,157.162 83.4992,161.829 84.5,166.5C 69.5273,174.988 54.5273,183.488 39.5,192C 36.17,192.75 33.17,193.25 30.5,193.5C 28.0252,191.23 26.0252,188.563 24.5,185.5C 25.4728,184.209 26.4728,184.209 27.5,185.5C 44.2737,176.567 60.9403,167.4 77.5,158C 79.4682,156.539 80.8016,154.705 81.5,152.5 Z"/></g>
<g><path style="opacity:1" fill="#499f9a" d="M 259.5,168.5 C 261.446,170.734 262.613,173.401 263,176.5C 263.5,201.164 263.667,225.831 263.5,250.5C 263.167,250.5 262.833,250.5 262.5,250.5C 262.784,248.585 262.451,246.919 261.5,245.5C 259.247,236.272 254.58,228.605 247.5,222.5C 252.323,205.319 256.323,188.152 259.5,171C 258.833,170.667 258.167,170.333 257.5,170C 258.416,169.722 259.082,169.222 259.5,168.5 Z"/></g>
<g><path style="opacity:1" fill="#40949a" d="M 84.5,166.5 C 86.94,172.713 89.94,178.713 93.5,184.5C 82.4953,190.669 71.4953,196.835 60.5,203C 58.5594,203.743 56.7261,203.576 55,202.5C 53.4157,203.861 51.5824,204.528 49.5,204.5C 42.0888,202.63 35.7554,198.963 30.5,193.5C 33.17,193.25 36.17,192.75 39.5,192C 54.5273,183.488 69.5273,174.988 84.5,166.5 Z"/></g>
<g><path style="opacity:1" fill="#55a3a0" d="M 93.5,184.5 C 95.8062,187.473 98.4728,190.14 101.5,192.5C 105.138,196.992 109.805,199.992 115.5,201.5C 118.799,203.483 122.466,204.483 126.5,204.5C 135.318,205.493 144.318,205.827 153.5,205.5C 159.833,205.5 166.167,205.5 172.5,205.5C 176.833,205.5 181.167,205.5 185.5,205.5C 189.042,205.187 192.375,205.521 195.5,206.5C 148.832,206.667 102.165,206.5 55.5,206C 53.2922,205.809 51.2922,205.309 49.5,204.5C 51.5824,204.528 53.4157,203.861 55,202.5C 56.7261,203.576 58.5594,203.743 60.5,203C 71.4953,196.835 82.4953,190.669 93.5,184.5 Z"/></g>
<g><path style="opacity:1" fill="#165b9c" d="M 205.5,206.5 C 209.454,207.381 213.454,208.048 217.5,208.5C 222.818,210.161 228.151,211.828 233.5,213.5C 238.47,215.988 243.137,218.988 247.5,222.5C 254.58,228.605 259.247,236.272 261.5,245.5C 261.664,248.187 261.497,250.854 261,253.5C 254.582,249.712 247.749,246.545 240.5,244C 228.733,239.767 217.066,235.601 205.5,231.5C 205.156,225.322 204.489,219.322 203.5,213.5C 202.66,211.147 201.326,209.147 199.5,207.5C 201.265,206.539 203.265,206.205 205.5,206.5 Z"/></g>
<g><path style="opacity:1" fill="#1b619d" d="M 203.5,213.5 C 204.489,219.322 205.156,225.322 205.5,231.5C 217.066,235.601 228.733,239.767 240.5,244C 247.749,246.545 254.582,249.712 261,253.5C 261.497,250.854 261.664,248.187 261.5,245.5C 262.451,246.919 262.784,248.585 262.5,250.5C 262.89,254.394 262.223,258.06 260.5,261.5C 241.901,254.509 223.235,247.509 204.5,240.5C 204.784,238.585 204.451,236.919 203.5,235.5C 203.5,228.167 203.5,220.833 203.5,213.5 Z"/></g>
<g><path style="opacity:1" fill="#1e669b" d="M 204.5,240.5 C 223.235,247.509 241.901,254.509 260.5,261.5C 262.223,258.06 262.89,254.394 262.5,250.5C 262.833,250.5 263.167,250.5 263.5,250.5C 263.5,257.833 263.5,265.167 263.5,272.5C 262.883,272.389 262.383,272.056 262,271.5C 261.751,272.624 261.251,273.624 260.5,274.5C 242.675,267.272 224.675,260.105 206.5,253C 204.897,249.017 204.23,244.85 204.5,240.5 Z"/></g>
<g><path style="opacity:1" fill="#32809a" d="M 42.5,248.5 C 36.0494,263.909 29.216,279.575 22,295.5C 21.7216,294.584 21.2216,293.918 20.5,293.5C 20.5,278.5 20.5,263.5 20.5,248.5C 27.8333,248.5 35.1667,248.5 42.5,248.5 Z"/></g>
<g><path style="opacity:1" fill="#36869b" d="M 42.5,248.5 C 47.8333,248.5 53.1667,248.5 58.5,248.5C 58.4142,249.496 58.7476,250.329 59.5,251C 58.107,253.178 56.4404,254.178 54.5,254C 55.2393,256.235 55.2393,258.235 54.5,260C 45.3362,279.267 36.8362,298.433 29,317.5C 28,319.167 27,320.833 26,322.5C 25.6582,320.381 24.8249,320.047 23.5,321.5C 21.7261,318.074 20.7261,314.407 20.5,310.5C 20.5,304.833 20.5,299.167 20.5,293.5C 21.2216,293.918 21.7216,294.584 22,295.5C 29.216,279.575 36.0494,263.909 42.5,248.5 Z"/></g>
<g><path style="opacity:1" fill="#3a8c9b" d="M 58.5,248.5 C 63.5,248.5 68.5,248.5 73.5,248.5C 61.7702,276.183 49.9368,303.849 38,331.5C 36.3464,331.206 34.8464,331.873 33.5,333.5C 29.0661,330.401 25.7328,326.401 23.5,321.5C 24.8249,320.047 25.6582,320.381 26,322.5C 27,320.833 28,319.167 29,317.5C 36.8362,298.433 45.3362,279.267 54.5,260C 55.2393,258.235 55.2393,256.235 54.5,254C 56.4404,254.178 58.107,253.178 59.5,251C 58.7476,250.329 58.4142,249.496 58.5,248.5 Z"/></g>
<g><path style="opacity:1" fill="#3f929a" d="M 73.5,248.5 C 75.5,248.5 77.5,248.5 79.5,248.5C 79.9065,258.955 79.0731,269.288 77,279.5C 68.2399,300.121 58.9066,320.455 49,340.5C 48.6667,339.833 48.3333,339.167 48,338.5C 47.1841,339.823 46.0174,340.489 44.5,340.5C 40.3171,338.913 36.6505,336.579 33.5,333.5C 34.8464,331.873 36.3464,331.206 38,331.5C 49.9368,303.849 61.7702,276.183 73.5,248.5 Z"/></g>
<g><path style="opacity:1" fill="#246d9c" d="M 203.5,235.5 C 204.451,236.919 204.784,238.585 204.5,240.5C 204.23,244.85 204.897,249.017 206.5,253C 224.675,260.105 242.675,267.272 260.5,274.5C 261.251,273.624 261.751,272.624 262,271.5C 262.383,272.056 262.883,272.389 263.5,272.5C 263.5,276.167 263.5,279.833 263.5,283.5C 261.908,282.398 261.075,283.065 261,285.5C 242.78,277.98 224.447,270.647 206,263.5C 205.434,261.277 204.6,259.277 203.5,257.5C 203.5,250.167 203.5,242.833 203.5,235.5 Z"/></g>
<g><path style="opacity:1" fill="#98bfcd" d="M 80.5,248.5 C 80.1667,248.5 79.8333,248.5 79.5,248.5C 77.5,248.5 75.5,248.5 73.5,248.5C 68.5,248.5 63.5,248.5 58.5,248.5C 53.1667,248.5 47.8333,248.5 42.5,248.5C 35.1667,248.5 27.8333,248.5 20.5,248.5C 20.5,263.5 20.5,278.5 20.5,293.5C 20.5,299.167 20.5,304.833 20.5,310.5C 19.5027,289.673 19.1694,268.673 19.5,247.5C 40.0069,247.17 60.3402,247.503 80.5,248.5 Z"/></g>
<g><path style="opacity:1" fill="#28739c" d="M 203.5,257.5 C 204.6,259.277 205.434,261.277 206,263.5C 224.447,270.647 242.78,277.98 261,285.5C 261.075,283.065 261.908,282.398 263.5,283.5C 263.5,288.167 263.5,292.833 263.5,297.5C 262.732,296.737 262.232,295.737 262,294.5C 261.439,295.022 260.772,295.355 260,295.5C 242.411,288.974 224.911,282.474 207.5,276C 206.364,274.855 205.364,273.688 204.5,272.5C 204.784,270.585 204.451,268.919 203.5,267.5C 203.5,264.167 203.5,260.833 203.5,257.5 Z"/></g>
<g><path style="opacity:1" fill="#45999a" d="M 79.5,248.5 C 79.8333,248.5 80.1667,248.5 80.5,248.5C 80.3335,258.506 80.5002,268.506 81,278.5C 82.605,282.276 85.4384,284.276 89.5,284.5C 89.7214,285.735 90.3881,286.735 91.5,287.5C 83.6667,305.167 75.8333,322.833 68,340.5C 63.0325,342.291 57.8659,342.958 52.5,342.5C 49.5718,342.435 46.9052,341.768 44.5,340.5C 46.0174,340.489 47.1841,339.823 48,338.5C 48.3333,339.167 48.6667,339.833 49,340.5C 58.9066,320.455 68.2399,300.121 77,279.5C 79.0731,269.288 79.9065,258.955 79.5,248.5 Z"/></g>
<g><path style="opacity:1" fill="#2c799b" d="M 204.5,272.5 C 205.364,273.688 206.364,274.855 207.5,276C 224.911,282.474 242.411,288.974 260,295.5C 260.772,295.355 261.439,295.022 262,294.5C 262.232,295.737 262.732,296.737 263.5,297.5C 263.5,300.167 263.5,302.833 263.5,305.5C 262.033,302.742 261.367,303.075 261.5,306.5C 243.024,299.871 224.357,292.871 205.5,285.5C 204.508,281.217 204.174,276.884 204.5,272.5 Z"/></g>
<g><path style="opacity:1" fill="#317f9b" d="M 203.5,267.5 C 204.451,268.919 204.784,270.585 204.5,272.5C 204.174,276.884 204.508,281.217 205.5,285.5C 224.357,292.871 243.024,299.871 261.5,306.5C 261.367,303.075 262.033,302.742 263.5,305.5C 263.729,310.01 263.062,314.343 261.5,318.5C 241.726,312.073 222.226,304.74 203,296.5C 202.505,294.527 202.338,292.527 202.5,290.5C 202.833,286.5 203.167,282.5 203.5,278.5C 203.5,274.833 203.5,271.167 203.5,267.5 Z"/></g>
<g><path style="opacity:1" fill="#5ab799" d="M 203.5,278.5 C 203.167,282.5 202.833,286.5 202.5,290.5C 201.007,295.673 199.674,301.006 198.5,306.5C 196.983,309.035 195.65,311.702 194.5,314.5C 192.533,317.477 190.533,320.477 188.5,323.5C 185.167,326.5 181.833,329.5 178.5,332.5C 170.118,338.406 160.785,341.739 150.5,342.5C 143.825,342.666 137.158,342.5 130.5,342C 132,341.167 133.167,340 134,338.5C 141.32,321.814 148.82,304.814 156.5,287.5C 155.376,286.141 154.042,285.141 152.5,284.5C 167.17,284.667 181.837,284.5 196.5,284C 199.621,283.033 201.954,281.2 203.5,278.5 Z"/></g>
<g><path style="opacity:1" fill="#52ac99" d="M 116.5,284.5 C 122.833,284.5 129.167,284.5 135.5,284.5C 136.209,285.404 137.209,285.737 138.5,285.5C 131.287,304.128 123.287,322.461 114.5,340.5C 113.624,341.251 112.624,341.751 111.5,342C 113.382,342.198 115.048,342.698 116.5,343.5C 109.833,343.5 103.167,343.5 96.5,343.5C 96.3893,342.883 96.056,342.383 95.5,342C 97.3289,341.727 98.8289,340.893 100,339.5C 107.465,321.747 115.298,304.247 123.5,287C 121.167,285.957 118.834,285.124 116.5,284.5 Z"/></g>
<g><path style="opacity:1" fill="#499f9a" d="M 89.5,284.5 C 93.1667,284.5 96.8333,284.5 100.5,284.5C 102.214,285.738 104.214,286.405 106.5,286.5C 103.743,294.197 100.576,302.197 97,310.5C 91.9678,321.783 86.4678,332.783 80.5,343.5C 70.985,343.827 61.6517,343.494 52.5,342.5C 57.8659,342.958 63.0325,342.291 68,340.5C 75.8333,322.833 83.6667,305.167 91.5,287.5C 90.3881,286.735 89.7214,285.735 89.5,284.5 Z"/></g>
<g><path style="opacity:1" fill="#4da59a" d="M 100.5,284.5 C 105.833,284.5 111.167,284.5 116.5,284.5C 118.834,285.124 121.167,285.957 123.5,287C 115.298,304.247 107.465,321.747 100,339.5C 98.8289,340.893 97.3289,341.727 95.5,342C 96.056,342.383 96.3893,342.883 96.5,343.5C 91.1667,343.5 85.8333,343.5 80.5,343.5C 86.4678,332.783 91.9678,321.783 97,310.5C 100.576,302.197 103.743,294.197 106.5,286.5C 104.214,286.405 102.214,285.738 100.5,284.5 Z"/></g>
<g><path style="opacity:1" fill="#56b199" d="M 135.5,284.5 C 141.167,284.5 146.833,284.5 152.5,284.5C 154.042,285.141 155.376,286.141 156.5,287.5C 148.82,304.814 141.32,321.814 134,338.5C 133.167,340 132,341.167 130.5,342C 137.158,342.5 143.825,342.666 150.5,342.5C 150.5,342.833 150.5,343.167 150.5,343.5C 139.167,343.5 127.833,343.5 116.5,343.5C 115.048,342.698 113.382,342.198 111.5,342C 112.624,341.751 113.624,341.251 114.5,340.5C 123.287,322.461 131.287,304.128 138.5,285.5C 137.209,285.737 136.209,285.404 135.5,284.5 Z"/></g>
<g><path style="opacity:1" fill="#36869b" d="M 202.5,290.5 C 202.338,292.527 202.505,294.527 203,296.5C 222.226,304.74 241.726,312.073 261.5,318.5C 260.606,321.392 259.272,324.059 257.5,326.5C 254.236,327.153 250.902,326.986 247.5,326C 243.002,323.703 238.335,321.703 233.5,320C 234.34,318.334 233.84,318.167 232,319.5C 226.433,318.214 221.433,315.881 217,312.5C 210.353,312.452 204.186,310.452 198.5,306.5C 199.674,301.006 201.007,295.673 202.5,290.5 Z"/></g>
<g><path style="opacity:1" fill="#3b8c9b" d="M 198.5,306.5 C 204.186,310.452 210.353,312.452 217,312.5C 221.433,315.881 226.433,318.214 232,319.5C 233.84,318.167 234.34,318.334 233.5,320C 238.335,321.703 243.002,323.703 247.5,326C 250.902,326.986 254.236,327.153 257.5,326.5C 255.167,329.5 252.5,332.167 249.5,334.5C 245.885,335.054 242.218,334.554 238.5,333C 230.871,329.564 223.371,326.73 216,324.5C 209.67,321.623 203.17,319.123 196.5,317C 195.244,316.583 194.577,315.75 194.5,314.5C 195.65,311.702 196.983,309.035 198.5,306.5 Z"/></g>
<g><path style="opacity:1" fill="#3f939a" d="M 194.5,314.5 C 194.577,315.75 195.244,316.583 196.5,317C 203.17,319.123 209.67,321.623 216,324.5C 223.371,326.73 230.871,329.564 238.5,333C 242.218,334.554 245.885,335.054 249.5,334.5C 245.419,337.874 240.753,340.207 235.5,341.5C 228.161,339.893 220.828,337.726 213.5,335C 206.172,331.222 198.505,328.222 190.5,326C 189.244,325.583 188.577,324.75 188.5,323.5C 190.533,320.477 192.533,317.477 194.5,314.5 Z"/></g>
<g><path style="opacity:1" fill="#43989a" d="M 188.5,323.5 C 188.577,324.75 189.244,325.583 190.5,326C 198.505,328.222 206.172,331.222 213.5,335C 220.828,337.726 228.161,339.893 235.5,341.5C 233.958,342.301 232.292,342.634 230.5,342.5C 213.46,344.183 197.127,341.683 181.5,335C 180.058,334.623 179.058,333.79 178.5,332.5C 181.833,329.5 185.167,326.5 188.5,323.5 Z"/></g>
<g><path style="opacity:1" fill="#4ca19b" d="M 178.5,332.5 C 179.058,333.79 180.058,334.623 181.5,335C 197.127,341.683 213.46,344.183 230.5,342.5C 204.005,343.498 177.339,343.831 150.5,343.5C 150.5,343.167 150.5,342.833 150.5,342.5C 160.785,341.739 170.118,338.406 178.5,332.5 Z"/></g>
</svg>
